<svg xmlns="http://www.w3.org/2000/svg" width="18" height="18" fill="none"><path fill="#E5E5E5" d="M0 0h18v18H0z"/><path fill="#F7F7F7" d="M-396-168h1920v1233H-396z"/><g filter="url(#a)"><rect width="1224" height="160" x="-48" y="-115" fill="#fff" rx="8"/><rect width="1223" height="159" x="-47.5" y="-114.5" stroke="#DBDCDE" rx="7.5"/></g><path fill="#FAFAFA" stroke="#DBDCDE" d="M-47.5-26.5h1223V37c0 4.1421-3.36 7.5-7.5 7.5H-40c-4.1421 0-7.5-3.3579-7.5-7.5v-63.5Z"/><path fill="#fff" stroke="#DBDCDE" d="M-15.5-3c0-4.14214 3.3579-7.5 7.5-7.5h320c4.142 0 7.5 3.35786 7.5 7.5v24c0 4.1421-3.358 7.5-7.5 7.5H-7.99999C-12.1421 28.5-15.5 25.1421-15.5 21V-3Z"/><g stroke="#6C6D6F" stroke-linecap="round" stroke-linejoin="round"><path d="M8.25 14.25c3.3137 0 6-2.6863 6-6 0-3.31371-2.6863-6-6-6-3.31371 0-6 2.68629-6 6 0 3.3137 2.68629 6 6 6ZM15.7499 15.7499l-3.2625-3.2625"/></g><defs><filter id="a" width="1230" height="166" x="-50" y="-115" color-interpolation-filters="sRGB" filterUnits="userSpaceOnUse"><feFlood flood-opacity="0" result="BackgroundImageFix"/><feColorMatrix in="SourceAlpha" result="hardAlpha" values="0 0 0 0 0 0 0 0 0 0 0 0 0 0 0 0 0 0 127 0"/><feOffset dx="1" dy="3"/><feGaussianBlur stdDeviation="1.5"/><feColorMatrix values="0 0 0 0 0.243137 0 0 0 0 0.247059 0 0 0 0 0.25098 0 0 0 0.1 0"/><feBlend in2="BackgroundImageFix" result="effect1_dropShadow_0_1"/><feBlend in="SourceGraphic" in2="effect1_dropShadow_0_1" result="shape"/></filter></defs></svg>